<svg xmlns="http://www.w3.org/2000/svg" width="32" height="32" viewBox="0 0 32 32">
  <g id="Group_4457" data-name="Group 4457" transform="translate(-382 -3601)">
    <rect id="Rectangle_1904" data-name="Rectangle 1904" width="32" height="32" rx="8" transform="translate(382 3601)" fill="#fff" opacity="0.15"/>
    <g id="Group_4458" data-name="Group 4458" transform="translate(388.521 3611.002)">
      <g id="google-hangouts" transform="translate(0 0)">
        <path id="Path_4357" data-name="Path 4357" d="M6.03,2.18A3.84,3.84,0,0,1,9.081,3.716l1.547-1.558a5.99,5.99,0,1,0,1.166,5.471,5.81,5.81,0,0,0,.229-1.635V5.449H6.574V7.628H9.462A3.792,3.792,0,0,1,6.03,9.808a3.85,3.85,0,0,1-3.85-3.814A3.85,3.85,0,0,1,6.03,2.18Zm0,0" transform="translate(0 0)" fill="#fff"/>
        <path id="Path_4358" data-name="Path 4358" d="M364.814,90h-2.18v1.635H361v2.179h1.635v1.635h2.18V93.814h1.671V91.635h-1.671Zm0,0" transform="translate(-347.887 -86.731)" fill="#fff"/>
      </g>
    </g>
  </g>
</svg>
