<svg xmlns="http://www.w3.org/2000/svg" xmlns:xlink="http://www.w3.org/1999/xlink" width="1392.182" height="598.565" viewBox="0 0 1392.182 598.565"><defs><linearGradient id="a" x1="0.5" x2="0.5" y2="1" gradientUnits="objectBoundingBox"><stop offset="0" stop-color="#f6f6f6"/><stop offset="1" stop-color="#ececec"/></linearGradient><linearGradient id="b" x1="0.5" x2="0.5" y2="1" gradientUnits="objectBoundingBox"><stop offset="0" stop-color="#fff"/><stop offset="1" stop-color="#f3f3f3"/></linearGradient><linearGradient id="c" x1="0.5" x2="0.5" y2="1" gradientUnits="objectBoundingBox"><stop offset="0" stop-color="#f3f3f3"/><stop offset="1" stop-color="#fff"/></linearGradient></defs><g transform="translate(-263.731 -3000)"><g transform="translate(806.085 2993.525)"><path d="M33.332,0h221.98a33.332,33.332,0,0,1,33.332,33.332v531.9a33.332,33.332,0,0,1-33.332,33.332H33.332A33.332,33.332,0,0,1,0,565.233V33.332A33.332,33.332,0,0,1,33.332,0Z" transform="translate(8.915 6.474)" fill="url(#a)"/><path d="M31.518,0H254.29a31.436,31.436,0,0,1,31.518,31.354v533.02a31.436,31.436,0,0,1-31.518,31.354H31.518A31.436,31.436,0,0,1,0,564.374V31.354A31.436,31.436,0,0,1,31.518,0Z" transform="translate(10.333 7.893)" fill="url(#b)"/><g transform="translate(184.19 18.327)"><circle cx="5" cy="5" r="5" transform="translate(0.369 0.43)" fill="url(#c)"/><ellipse cx="4.5" cy="5" rx="4.5" ry="5" transform="translate(0.369 0.43)" fill="url(#b)"/><circle cx="3.5" cy="3.5" r="3.5" transform="translate(1.369 1.43)" fill="#f3f3f3"/><circle cx="1" cy="1" r="1" transform="translate(4.369 1.43)" fill="#fff"/></g><path d="M2.982.5H41.988a2.482,2.482,0,0,1,0,4.964H2.982A2.482,2.482,0,0,1,2.982.5Z" transform="translate(130.752 21.222)" fill="#f3f3f3" stroke="#f9f8f8" stroke-width="1"/><path d="M239,575.871H26.949A26.98,26.98,0,0,1,0,548.921V26.95A26.98,26.98,0,0,1,26.949,0H55.5a4.831,4.831,0,0,1,3.709,3.667c.117.513.239,1.185.38,1.962.272,1.5.609,3.351,1.111,5.225C61.352,13.279,64.218,21.2,73.845,21.3c3.631.037,26.271.045,44.625.045,33.762,0,72.5-.027,74.314-.045,9.627-.1,12.492-8.02,13.141-10.445.5-1.879.84-3.736,1.112-5.229.142-.781.263-1.448.379-1.958A4.675,4.675,0,0,1,211.091,0H239A26.98,26.98,0,0,1,265.95,26.95V548.921A26.98,26.98,0,0,1,239,575.871Z" transform="translate(20.262 17.822)" fill="#e3e3e3"/><path d="M239,575.871H26.949A26.98,26.98,0,0,1,0,548.921V26.95A26.98,26.98,0,0,1,26.949,0H55.5a4.831,4.831,0,0,1,3.709,3.667c.117.513.239,1.185.38,1.962.272,1.5.609,3.351,1.111,5.225C61.352,13.279,64.218,21.2,73.845,21.3c3.631.037,26.271.045,44.625.045,33.762,0,72.5-.027,74.314-.045,9.627-.1,12.492-8.02,13.141-10.445.5-1.879.84-3.736,1.112-5.229.142-.781.263-1.448.379-1.958A4.675,4.675,0,0,1,211.091,0H239A26.98,26.98,0,0,1,265.95,26.95V548.921A26.98,26.98,0,0,1,239,575.871Z" transform="translate(20.262 17.822)" fill="#e3e3e3"/><path d="M1.773,0h88.65a1.773,1.773,0,0,1,0,3.546H1.773A1.773,1.773,0,1,1,1.773,0Z" transform="translate(107.494 581.636)" fill="#e2e2e2"/></g><g transform="translate(1144.06 3048)" opacity="0.71"><path d="M208.4,502.129H23.5A23.525,23.525,0,0,1,0,478.63V23.5A23.525,23.525,0,0,1,23.5,0H48.4a4.212,4.212,0,0,1,3.234,3.2c.1.447.208,1.033.331,1.711.237,1.3.531,2.922.969,4.556.566,2.115,3.064,9.021,11.458,9.107,3.166.033,22.907.04,38.91.04,29.439,0,63.218-.023,64.8-.04,8.394-.087,10.892-6.993,11.458-9.107.438-1.638.733-3.258.969-4.559.124-.681.229-1.262.33-1.707A4.077,4.077,0,0,1,184.061,0H208.4a23.525,23.525,0,0,1,23.5,23.5V478.63A23.525,23.525,0,0,1,208.4,502.129Z" transform="translate(0 0)" fill="#e3e3e3"/><path d="M208.4,502.129H23.5A23.525,23.525,0,0,1,0,478.63V23.5A23.525,23.525,0,0,1,23.5,0H48.4a4.212,4.212,0,0,1,3.234,3.2c.1.447.208,1.033.331,1.711.237,1.3.531,2.922.969,4.556.566,2.115,3.064,9.021,11.458,9.107,3.166.033,22.907.04,38.91.04,29.439,0,63.218-.023,64.8-.04,8.394-.087,10.892-6.993,11.458-9.107.438-1.638.733-3.258.969-4.559.124-.681.229-1.262.33-1.707A4.077,4.077,0,0,1,184.061,0H208.4a23.525,23.525,0,0,1,23.5,23.5V478.63A23.525,23.525,0,0,1,208.4,502.129Z" transform="translate(0 0)" fill="#e3e3e3"/><path d="M1.546,0h77.3a1.546,1.546,0,1,1,0,3.092H1.546A1.546,1.546,0,1,1,1.546,0Z" transform="translate(76.061 491.617)" fill="#e2e2e2"/></g><g transform="translate(263.731 3048)" opacity="0.43"><path d="M208.4,502.129H23.5A23.525,23.525,0,0,1,0,478.63V23.5A23.525,23.525,0,0,1,23.5,0H48.4a4.212,4.212,0,0,1,3.234,3.2c.1.447.208,1.033.331,1.711.237,1.3.531,2.922.969,4.556.566,2.115,3.064,9.021,11.458,9.107,3.166.033,22.907.04,38.91.04,29.439,0,63.218-.023,64.8-.04,8.394-.087,10.892-6.993,11.458-9.107.438-1.638.733-3.258.969-4.559.124-.681.229-1.262.33-1.707A4.077,4.077,0,0,1,184.061,0H208.4a23.525,23.525,0,0,1,23.5,23.5V478.63A23.525,23.525,0,0,1,208.4,502.129Z" transform="translate(0 0)" fill="#e3e3e3"/><path d="M208.4,502.129H23.5A23.525,23.525,0,0,1,0,478.63V23.5A23.525,23.525,0,0,1,23.5,0H48.4a4.212,4.212,0,0,1,3.234,3.2c.1.447.208,1.033.331,1.711.237,1.3.531,2.922.969,4.556.566,2.115,3.064,9.021,11.458,9.107,3.166.033,22.907.04,38.91.04,29.439,0,63.218-.023,64.8-.04,8.394-.087,10.892-6.993,11.458-9.107.438-1.638.733-3.258.969-4.559.124-.681.229-1.262.33-1.707A4.077,4.077,0,0,1,184.061,0H208.4a23.525,23.525,0,0,1,23.5,23.5V478.63A23.525,23.525,0,0,1,208.4,502.129Z" transform="translate(0 0)" fill="#e3e3e3"/><path d="M1.546,0h77.3a1.546,1.546,0,1,1,0,3.092H1.546A1.546,1.546,0,1,1,1.546,0Z" transform="translate(76.061 491.617)" fill="#e2e2e2"/></g><g transform="translate(1424.019 3048)" opacity="0.43"><path d="M208.4,502.129H23.5A23.525,23.525,0,0,1,0,478.63V23.5A23.525,23.525,0,0,1,23.5,0H48.4a4.212,4.212,0,0,1,3.234,3.2c.1.447.208,1.033.331,1.711.237,1.3.531,2.922.969,4.556.566,2.115,3.064,9.021,11.458,9.107,3.166.033,22.907.04,38.91.04,29.439,0,63.218-.023,64.8-.04,8.394-.087,10.892-6.993,11.458-9.107.438-1.638.733-3.258.969-4.559.124-.681.229-1.262.33-1.707A4.077,4.077,0,0,1,184.061,0H208.4a23.525,23.525,0,0,1,23.5,23.5V478.63A23.525,23.525,0,0,1,208.4,502.129Z" transform="translate(0 0)" fill="#e3e3e3"/><path d="M208.4,502.129H23.5A23.525,23.525,0,0,1,0,478.63V23.5A23.525,23.525,0,0,1,23.5,0H48.4a4.212,4.212,0,0,1,3.234,3.2c.1.447.208,1.033.331,1.711.237,1.3.531,2.922.969,4.556.566,2.115,3.064,9.021,11.458,9.107,3.166.033,22.907.04,38.91.04,29.439,0,63.218-.023,64.8-.04,8.394-.087,10.892-6.993,11.458-9.107.438-1.638.733-3.258.969-4.559.124-.681.229-1.262.33-1.707A4.077,4.077,0,0,1,184.061,0H208.4a23.525,23.525,0,0,1,23.5,23.5V478.63A23.525,23.525,0,0,1,208.4,502.129Z" transform="translate(0 0)" fill="#e3e3e3"/><path d="M1.546,0h77.3a1.546,1.546,0,1,1,0,3.092H1.546A1.546,1.546,0,1,1,1.546,0Z" transform="translate(76.061 491.617)" fill="#e2e2e2"/></g><g transform="translate(543.69 3048)" opacity="0.71"><path d="M208.4,502.129H23.5A23.525,23.525,0,0,1,0,478.63V23.5A23.525,23.525,0,0,1,23.5,0H48.4a4.212,4.212,0,0,1,3.234,3.2c.1.447.208,1.033.331,1.711.237,1.3.531,2.922.969,4.556.566,2.115,3.064,9.021,11.458,9.107,3.166.033,22.907.04,38.91.04,29.439,0,63.218-.023,64.8-.04,8.394-.087,10.892-6.993,11.458-9.107.438-1.638.733-3.258.969-4.559.124-.681.229-1.262.33-1.707A4.077,4.077,0,0,1,184.061,0H208.4a23.525,23.525,0,0,1,23.5,23.5V478.63A23.525,23.525,0,0,1,208.4,502.129Z" transform="translate(0 0)" fill="#e3e3e3"/><path d="M208.4,502.129H23.5A23.525,23.525,0,0,1,0,478.63V23.5A23.525,23.525,0,0,1,23.5,0H48.4a4.212,4.212,0,0,1,3.234,3.2c.1.447.208,1.033.331,1.711.237,1.3.531,2.922.969,4.556.566,2.115,3.064,9.021,11.458,9.107,3.166.033,22.907.04,38.91.04,29.439,0,63.218-.023,64.8-.04,8.394-.087,10.892-6.993,11.458-9.107.438-1.638.733-3.258.969-4.559.124-.681.229-1.262.33-1.707A4.077,4.077,0,0,1,184.061,0H208.4a23.525,23.525,0,0,1,23.5,23.5V478.63A23.525,23.525,0,0,1,208.4,502.129Z" transform="translate(0 0)" fill="#e3e3e3"/><path d="M1.546,0h77.3a1.546,1.546,0,1,1,0,3.092H1.546A1.546,1.546,0,1,1,1.546,0Z" transform="translate(76.061 491.617)" fill="#e2e2e2"/></g></g></svg>