<svg xmlns="http://www.w3.org/2000/svg" xmlns:xlink="http://www.w3.org/1999/xlink" width="753.441" height="693.395" viewBox="0 0 603.441 555.395"><defs><linearGradient id="a" x1="0.5" x2="0.5" y2="1" gradientUnits="objectBoundingBox"><stop offset="0" stop-color="#1487fd"/><stop offset="1" stop-color="#42a0ff"/></linearGradient><linearGradient id="b" x1="0.5" x2="0.5" y2="1" gradientUnits="objectBoundingBox"><stop offset="0" stop-color="#f6f6f6"/><stop offset="1" stop-color="#ececec"/></linearGradient><linearGradient id="c" x1="0.5" x2="0.5" y2="1" gradientUnits="objectBoundingBox"><stop offset="0" stop-color="#fff"/><stop offset="1" stop-color="#f3f3f3"/></linearGradient><linearGradient id="d" x1="0.5" x2="0.5" y2="1" gradientUnits="objectBoundingBox"><stop offset="0" stop-color="#f3f3f3"/><stop offset="1" stop-color="#fff"/></linearGradient></defs><g transform="translate(-84.819 -1792)"><g transform="translate(206.186 1890.42)"><g transform="translate(242.404 17.315)" fill="none" stroke="#fb0" stroke-width="50"><circle cx="119.835" cy="119.835" r="119.835" stroke="none"/><circle cx="119.835" cy="119.835" r="94.835" fill="none"/></g><circle cx="46.932" cy="46.932" r="46.932" transform="translate(0 228.735)" fill="url(#a)"/><g transform="translate(37.363)" fill="#fff" stroke="#e8e8e8" stroke-width="1"><circle cx="173.601" cy="173.601" r="173.601" stroke="none"/><circle cx="173.601" cy="173.601" r="173.101" fill="none"/></g><g transform="translate(37.363 248.276)" opacity="0.14"><circle cx="3.064" cy="3.064" r="3.064" transform="translate(92.952) rotate(90)" fill="#f2805b"/><circle cx="3.064" cy="3.064" r="3.064" transform="translate(92.952 17.365) rotate(90)" fill="#f2805b"/><circle cx="3.064" cy="3.064" r="3.064" transform="translate(92.952 34.729) rotate(90)" fill="#f2805b"/><circle cx="3.064" cy="3.064" r="3.064" transform="translate(92.952 49.411) rotate(90)" fill="#f2805b"/><circle cx="3.064" cy="3.064" r="3.064" transform="translate(92.952 65.881) rotate(90)" fill="#f2805b"/><circle cx="3.064" cy="3.064" r="3.064" transform="translate(92.952 82.351) rotate(90)" fill="#f2805b"/><circle cx="3.064" cy="3.064" r="3.064" transform="translate(92.952 98.822) rotate(90)" fill="#f2805b"/><circle cx="3.064" cy="3.064" r="3.064" transform="translate(92.952 115.292) rotate(90)" fill="#f2805b"/><circle cx="3.064" cy="3.064" r="3.064" transform="translate(92.952 131.762) rotate(90)" fill="#f2805b"/><circle cx="3.064" cy="3.064" r="3.064" transform="translate(92.952 148.233) rotate(90)" fill="#f2805b"/><circle cx="3.064" cy="3.064" r="3.064" transform="translate(92.952 162.914) rotate(90)" fill="#f2805b"/><circle cx="3.064" cy="3.064" r="3.064" transform="translate(92.952 180.279) rotate(90)" fill="#f2805b"/><circle cx="3.064" cy="3.064" r="3.064" transform="translate(92.952 197.644) rotate(90)" fill="#f2805b"/><circle cx="3.064" cy="3.064" r="3.064" transform="translate(23.493) rotate(90)" fill="#f2805b"/><circle cx="3.064" cy="3.064" r="3.064" transform="translate(23.493 17.365) rotate(90)" fill="#f2805b"/><circle cx="3.064" cy="3.064" r="3.064" transform="translate(23.493 34.729) rotate(90)" fill="#f2805b"/><circle cx="3.064" cy="3.064" r="3.064" transform="translate(23.493 49.411) rotate(90)" fill="#f2805b"/><circle cx="3.064" cy="3.064" r="3.064" transform="translate(23.493 65.881) rotate(90)" fill="#f2805b"/><circle cx="3.064" cy="3.064" r="3.064" transform="translate(23.493 82.351) rotate(90)" fill="#f2805b"/><circle cx="3.064" cy="3.064" r="3.064" transform="translate(23.493 98.822) rotate(90)" fill="#f2805b"/><circle cx="3.064" cy="3.064" r="3.064" transform="translate(75.587) rotate(90)" fill="#f2805b"/><circle cx="3.064" cy="3.064" r="3.064" transform="translate(75.587 17.365) rotate(90)" fill="#f2805b"/><circle cx="3.064" cy="3.064" r="3.064" transform="translate(75.587 34.729) rotate(90)" fill="#f2805b"/><circle cx="3.064" cy="3.064" r="3.064" transform="translate(75.587 49.411) rotate(90)" fill="#f2805b"/><circle cx="3.064" cy="3.064" r="3.064" transform="translate(75.587 65.881) rotate(90)" fill="#f2805b"/><circle cx="3.064" cy="3.064" r="3.064" transform="translate(75.587 82.351) rotate(90)" fill="#f2805b"/><circle cx="3.064" cy="3.064" r="3.064" transform="translate(75.587 98.822) rotate(90)" fill="#f2805b"/><circle cx="3.064" cy="3.064" r="3.064" transform="translate(75.587 115.292) rotate(90)" fill="#f2805b"/><circle cx="3.064" cy="3.064" r="3.064" transform="translate(75.587 131.762) rotate(90)" fill="#f2805b"/><circle cx="3.064" cy="3.064" r="3.064" transform="translate(75.587 148.233) rotate(90)" fill="#f2805b"/><circle cx="3.064" cy="3.064" r="3.064" transform="translate(75.587 162.914) rotate(90)" fill="#f2805b"/><circle cx="3.064" cy="3.064" r="3.064" transform="translate(75.587 180.279) rotate(90)" fill="#f2805b"/><circle cx="3.064" cy="3.064" r="3.064" transform="translate(75.587 197.644) rotate(90)" fill="#f2805b"/><circle cx="3.064" cy="3.064" r="3.064" transform="translate(6.129) rotate(90)" fill="#f2805b"/><circle cx="3.064" cy="3.064" r="3.064" transform="translate(6.129 17.365) rotate(90)" fill="#f2805b"/><circle cx="3.064" cy="3.064" r="3.064" transform="translate(6.129 34.729) rotate(90)" fill="#f2805b"/><circle cx="3.064" cy="3.064" r="3.064" transform="translate(6.129 49.411) rotate(90)" fill="#f2805b"/><circle cx="3.064" cy="3.064" r="3.064" transform="translate(6.129 65.881) rotate(90)" fill="#f2805b"/><circle cx="3.064" cy="3.064" r="3.064" transform="translate(6.129 82.351) rotate(90)" fill="#f2805b"/><circle cx="3.064" cy="3.064" r="3.064" transform="translate(6.129 98.822) rotate(90)" fill="#f2805b"/><circle cx="3.064" cy="3.064" r="3.064" transform="translate(58.223) rotate(90)" fill="#f2805b"/><circle cx="3.064" cy="3.064" r="3.064" transform="translate(58.223 17.365) rotate(90)" fill="#f2805b"/><circle cx="3.064" cy="3.064" r="3.064" transform="translate(58.223 34.729) rotate(90)" fill="#f2805b"/><circle cx="3.064" cy="3.064" r="3.064" transform="translate(58.223 49.411) rotate(90)" fill="#f2805b"/><circle cx="3.064" cy="3.064" r="3.064" transform="translate(58.223 65.881) rotate(90)" fill="#f2805b"/><circle cx="3.064" cy="3.064" r="3.064" transform="translate(58.223 82.351) rotate(90)" fill="#f2805b"/><circle cx="3.064" cy="3.064" r="3.064" transform="translate(58.223 98.822) rotate(90)" fill="#f2805b"/><circle cx="3.064" cy="3.064" r="3.064" transform="translate(58.223 115.292) rotate(90)" fill="#f2805b"/><circle cx="3.064" cy="3.064" r="3.064" transform="translate(58.223 131.762) rotate(90)" fill="#f2805b"/><circle cx="3.064" cy="3.064" r="3.064" transform="translate(58.223 148.233) rotate(90)" fill="#f2805b"/><circle cx="3.064" cy="3.064" r="3.064" transform="translate(58.223 162.914) rotate(90)" fill="#f2805b"/><circle cx="3.064" cy="3.064" r="3.064" transform="translate(58.223 180.279) rotate(90)" fill="#f2805b"/><circle cx="3.064" cy="3.064" r="3.064" transform="translate(58.223 197.644) rotate(90)" fill="#f2805b"/><circle cx="3.064" cy="3.064" r="3.064" transform="translate(23.493 115.292) rotate(90)" fill="#f2805b"/><circle cx="3.064" cy="3.064" r="3.064" transform="translate(23.493 131.762) rotate(90)" fill="#f2805b"/><circle cx="3.064" cy="3.064" r="3.064" transform="translate(23.493 148.233) rotate(90)" fill="#f2805b"/><circle cx="3.064" cy="3.064" r="3.064" transform="translate(23.493 162.914) rotate(90)" fill="#f2805b"/><circle cx="3.064" cy="3.064" r="3.064" transform="translate(23.493 180.279) rotate(90)" fill="#f2805b"/><circle cx="3.064" cy="3.064" r="3.064" transform="translate(23.493 197.644) rotate(90)" fill="#f2805b"/><circle cx="3.064" cy="3.064" r="3.064" transform="translate(40.858) rotate(90)" fill="#f2805b"/><circle cx="3.064" cy="3.064" r="3.064" transform="translate(40.858 17.365) rotate(90)" fill="#f2805b"/><circle cx="3.064" cy="3.064" r="3.064" transform="translate(40.858 34.729) rotate(90)" fill="#f2805b"/><circle cx="3.064" cy="3.064" r="3.064" transform="translate(40.858 49.411) rotate(90)" fill="#f2805b"/><circle cx="3.064" cy="3.064" r="3.064" transform="translate(40.858 65.881) rotate(90)" fill="#f2805b"/><circle cx="3.064" cy="3.064" r="3.064" transform="translate(40.858 82.351) rotate(90)" fill="#f2805b"/><circle cx="3.064" cy="3.064" r="3.064" transform="translate(40.858 98.822) rotate(90)" fill="#f2805b"/><circle cx="3.064" cy="3.064" r="3.064" transform="translate(40.858 115.292) rotate(90)" fill="#f2805b"/><circle cx="3.064" cy="3.064" r="3.064" transform="translate(40.858 131.762) rotate(90)" fill="#f2805b"/><circle cx="3.064" cy="3.064" r="3.064" transform="translate(40.858 148.233) rotate(90)" fill="#f2805b"/><circle cx="3.064" cy="3.064" r="3.064" transform="translate(40.858 162.914) rotate(90)" fill="#f2805b"/><circle cx="3.064" cy="3.064" r="3.064" transform="translate(40.858 180.279) rotate(90)" fill="#f2805b"/><circle cx="3.064" cy="3.064" r="3.064" transform="translate(40.858 197.644) rotate(90)" fill="#f2805b"/><circle cx="3.064" cy="3.064" r="3.064" transform="translate(6.129 115.292) rotate(90)" fill="#f2805b"/><circle cx="3.064" cy="3.064" r="3.064" transform="translate(6.129 131.762) rotate(90)" fill="#f2805b"/><circle cx="3.064" cy="3.064" r="3.064" transform="translate(6.129 148.233) rotate(90)" fill="#f2805b"/><circle cx="3.064" cy="3.064" r="3.064" transform="translate(6.129 162.914) rotate(90)" fill="#f2805b"/><circle cx="3.064" cy="3.064" r="3.064" transform="translate(6.129 180.279) rotate(90)" fill="#f2805b"/><circle cx="3.064" cy="3.064" r="3.064" transform="translate(6.129 197.644) rotate(90)" fill="#f2805b"/></g></g><g transform="matrix(0.819, -0.574, 0.574, 0.819, 84.819, 1952.025)"><path d="M26.878,0H205.873A26.878,26.878,0,0,1,232.75,26.878v428.9a26.878,26.878,0,0,1-26.878,26.878H26.878A26.878,26.878,0,0,1,0,455.779V26.878A26.878,26.878,0,0,1,26.878,0Z" transform="translate(0 0)" fill="url(#b)"/><path d="M25.414,0H205.048a25.349,25.349,0,0,1,25.414,25.283v429.8a25.349,25.349,0,0,1-25.414,25.283H25.414A25.349,25.349,0,0,1,0,455.087V25.283A25.349,25.349,0,0,1,25.414,0Z" transform="translate(1.144 1.144)" fill="url(#c)"/><g transform="translate(141.632 9.905)"><ellipse cx="4.032" cy="4.032" rx="4.032" ry="4.032" transform="translate(0 0)" fill="url(#d)"/><circle cx="3.629" cy="3.629" r="3.629" transform="translate(0 0)" fill="url(#c)"/><ellipse cx="2.822" cy="2.822" rx="2.822" ry="2.822" transform="translate(0.806 0.806)" fill="#f3f3f3"/><circle cx="0.806" cy="0.806" r="0.806" transform="translate(3.225 0.806)" fill="#fff"/></g><path d="M2,0H33.454a2,2,0,0,1,0,4H2A2,2,0,0,1,2,0Z" transform="translate(98.647 12.295)" fill="#f3f3f3" stroke="#f9f8f8" stroke-width="1"/><path d="M192.719,464.357H21.731A21.755,21.755,0,0,1,0,442.626V21.731A21.756,21.756,0,0,1,21.731,0H44.756a3.9,3.9,0,0,1,2.991,2.957c.094.414.192.955.306,1.582.219,1.206.491,2.7.9,4.213.523,1.956,2.833,8.342,10.6,8.422,2.928.03,21.184.037,35.983.037,27.224,0,58.462-.021,59.924-.037,7.763-.08,10.073-6.467,10.6-8.422.405-1.515.678-3.013.9-4.216.114-.63.212-1.168.305-1.579A3.77,3.77,0,0,1,170.215,0h22.5A21.756,21.756,0,0,1,214.45,21.731V442.626A21.755,21.755,0,0,1,192.719,464.357Z" transform="translate(9.15 9.15)" fill="#e3e3e3"/><path d="M192.719,464.357H21.731A21.755,21.755,0,0,1,0,442.626V21.731A21.756,21.756,0,0,1,21.731,0H44.756a3.9,3.9,0,0,1,2.991,2.957c.094.414.192.955.306,1.582.219,1.206.491,2.7.9,4.213.523,1.956,2.833,8.342,10.6,8.422,2.928.03,21.184.037,35.983.037,27.224,0,58.462-.021,59.924-.037,7.763-.08,10.073-6.467,10.6-8.422.405-1.515.678-3.013.9-4.216.114-.63.212-1.168.305-1.579A3.77,3.77,0,0,1,170.215,0h22.5A21.756,21.756,0,0,1,214.45,21.731V442.626A21.755,21.755,0,0,1,192.719,464.357Z" transform="translate(9.15 9.15)" fill="#e3e3e3"/><path d="M1.43,0H72.913a1.43,1.43,0,0,1,0,2.859H1.43A1.43,1.43,0,1,1,1.43,0Z" transform="translate(79.49 463.785)" fill="#e2e2e2"/></g><g transform="translate(341.057 1792)"><path d="M30.376,0H232.664A30.376,30.376,0,0,1,263.04,30.376V515.093a30.376,30.376,0,0,1-30.376,30.376H30.376A30.376,30.376,0,0,1,0,515.093V30.376A30.376,30.376,0,0,1,30.376,0Z" transform="translate(0 0)" fill="url(#b)"/><path d="M28.722,0H231.733a28.648,28.648,0,0,1,28.722,28.573V514.31a28.648,28.648,0,0,1-28.722,28.573H28.722A28.648,28.648,0,0,1,0,514.31V28.573A28.648,28.648,0,0,1,28.722,0Z" transform="translate(1.293 1.293)" fill="url(#c)"/><g transform="translate(160.064 11.194)"><ellipse cx="4.556" cy="4.556" rx="4.556" ry="4.556" transform="translate(0 0)" fill="url(#d)"/><circle cx="4.101" cy="4.101" r="4.101" transform="translate(0 0)" fill="url(#c)"/><ellipse cx="3.19" cy="3.19" rx="3.19" ry="3.19" transform="translate(0.911 0.911)" fill="#f3f3f3"/><circle cx="0.911" cy="0.911" r="0.911" transform="translate(3.645 0.911)" fill="#fff"/></g><path d="M2.262,0H37.808a2.262,2.262,0,0,1,0,4.524H2.262A2.262,2.262,0,0,1,2.262,0Z" transform="translate(111.485 13.895)" fill="#f3f3f3" stroke="#f9f8f8" stroke-width="1"/><path d="M217.8,524.787H24.559A24.587,24.587,0,0,1,0,500.228V24.559A24.587,24.587,0,0,1,24.559,0H50.581a4.4,4.4,0,0,1,3.38,3.342c.106.468.217,1.08.346,1.788.248,1.363.555,3.054,1.012,4.762.591,2.21,3.2,9.428,11.975,9.518,3.309.034,23.941.041,40.666.041,30.767,0,66.071-.024,67.722-.041,8.773-.09,11.384-7.308,11.975-9.518.458-1.712.766-3.4,1.013-4.765.129-.712.24-1.319.345-1.784A4.261,4.261,0,0,1,192.366,0H217.8a24.587,24.587,0,0,1,24.559,24.559V500.228A24.587,24.587,0,0,1,217.8,524.787Z" transform="translate(10.341 10.341)" fill="#e3e3e3"/><path d="M217.8,524.787H24.559A24.587,24.587,0,0,1,0,500.228V24.559A24.587,24.587,0,0,1,24.559,0H50.581a4.4,4.4,0,0,1,3.38,3.342c.106.468.217,1.08.346,1.788.248,1.363.555,3.054,1.012,4.762.591,2.21,3.2,9.428,11.975,9.518,3.309.034,23.941.041,40.666.041,30.767,0,66.071-.024,67.722-.041,8.773-.09,11.384-7.308,11.975-9.518.458-1.712.766-3.4,1.013-4.765.129-.712.24-1.319.345-1.784A4.261,4.261,0,0,1,192.366,0H217.8a24.587,24.587,0,0,1,24.559,24.559V500.228A24.587,24.587,0,0,1,217.8,524.787Z" transform="translate(10.341 10.341)" fill="#e3e3e3"/><path d="M1.616,0H82.4a1.616,1.616,0,0,1,0,3.231H1.616A1.616,1.616,0,1,1,1.616,0Z" transform="translate(89.834 524.141)" fill="#e2e2e2"/></g></g></svg>