<svg xmlns="http://www.w3.org/2000/svg" width="32" height="32" viewBox="0 0 32 32">
  <g id="Group_4455" data-name="Group 4455" transform="translate(-382 -3601)">
    <rect id="Rectangle_1904" data-name="Rectangle 1904" width="32" height="32" rx="8" transform="translate(382 3601)" fill="#fff" opacity="0.15"/>
    <g id="twitter" transform="translate(389.681 3609.969)">
      <g id="twitter_2_" data-name="twitter (2)" transform="translate(0 0)">
        <g id="Group_1290" data-name="Group 1290">
          <path id="Path_4356" data-name="Path 4356" d="M17.309,49.665a7.4,7.4,0,0,1-2.045.56,3.529,3.529,0,0,0,1.561-1.961,7.091,7.091,0,0,1-2.25.859A3.548,3.548,0,0,0,8.437,51.55a3.654,3.654,0,0,0,.082.809,10.044,10.044,0,0,1-7.314-3.712A3.55,3.55,0,0,0,2.3,53.39a3.5,3.5,0,0,1-1.6-.437v.039a3.565,3.565,0,0,0,2.843,3.487,3.542,3.542,0,0,1-.93.117,3.137,3.137,0,0,1-.672-.061,3.582,3.582,0,0,0,3.316,2.472,7.13,7.13,0,0,1-4.4,1.513A6.648,6.648,0,0,1,0,60.471a9.99,9.99,0,0,0,5.444,1.592,10.03,10.03,0,0,0,10.1-10.1c0-.157-.005-.308-.013-.459A7.079,7.079,0,0,0,17.309,49.665Z" transform="translate(0 -48)" fill="#fff"/>
        </g>
      </g>
    </g>
  </g>
</svg>
